<svg width="138" height="152" viewBox="0 0 138 152" fill="none" xmlns="http://www.w3.org/2000/svg">
<path d="M0 24C0 10.7452 10.7452 0 24 0H114C127.255 0 138 10.7452 138 24V128C138 141.255 127.255 152 114 152H24C10.7452 152 0 141.255 0 128V24Z" fill="#29292E"/>
<path d="M94.1835 48.9667V75.3333C94.1835 76.5778 93.7656 77.6667 92.9297 78.6C92.0939 79.5333 91.1187 80 90.0042 80H48.141C47.0265 80 46.0513 79.5333 45.2155 78.6C44.3796 77.6667 43.9617 76.5778 43.9617 75.3333V48.9667C42.6614 47.7222 41.8023 46.1926 41.3844 44.3778C40.9665 42.563 41.0129 40.7481 41.5237 38.9333L44.5189 28.4333C44.8904 27.0333 45.5405 25.9444 46.4693 25.1667C47.398 24.3889 48.4661 24 49.6734 24H88.1931C89.4934 24 90.6311 24.4019 91.6063 25.2056C92.5815 26.0093 93.2548 27.0852 93.6263 28.4333L96.6912 38.9333C97.202 40.7481 97.2368 42.563 96.7956 44.3778C96.3545 46.1926 95.4838 47.7222 94.1835 48.9667ZM75.3765 46.5556C76.7231 46.5556 77.8609 46.063 78.7896 45.0778C79.7183 44.0926 80.0898 42.9 79.9041 41.5L78.1627 28.6667H71.1971V41.5C71.1971 42.8481 71.5918 44.0278 72.3813 45.0389C73.1707 46.05 74.1691 46.5556 75.3765 46.5556ZM62.3508 46.5556C63.6511 46.5556 64.7539 46.063 65.6595 45.0778C66.565 44.0926 67.0178 42.9 67.0178 41.5V28.6667H60.0522L58.3108 41.5C58.125 42.8481 58.4501 44.0278 59.286 45.0389C60.1218 46.05 61.1434 46.5556 62.3508 46.5556ZM49.6734 46.5556C50.7879 46.5556 51.7515 46.1278 52.5642 45.2722C53.3768 44.4167 53.8528 43.3667 53.9921 42.1222L55.8032 28.6667H48.8376L45.6334 40.0222C45.169 41.6296 45.3548 43.1204 46.1907 44.4944C47.0265 45.8685 48.1875 46.5556 49.6734 46.5556ZM88.4718 46.5556C89.9578 46.5556 91.1303 45.8815 91.9894 44.5333C92.8485 43.1852 93.0458 41.6815 92.5815 40.0222L89.3773 28.6667H82.4117L84.2228 42.1222C84.3621 43.3667 84.8381 44.4167 85.6507 45.2722C86.4634 46.1278 87.4037 46.5556 88.4718 46.5556ZM48.141 75.3333H90.0042V51.1444C90.0506 51.1963 89.8997 51.2222 89.5514 51.2222C89.2032 51.2222 88.8433 51.2222 88.4718 51.2222C87.3108 51.2222 86.208 50.95 85.1631 50.4056C84.1183 49.8611 83.085 49.0185 82.0634 47.8778C81.3204 48.9148 80.3917 49.7315 79.2772 50.3278C78.1627 50.9241 76.9321 51.2222 75.5854 51.2222C74.1923 51.2222 72.9966 51.0019 71.9982 50.5611C70.9998 50.1204 70.0362 49.3815 69.1074 48.3444C68.4109 49.2778 67.5286 49.9907 66.4605 50.4833C65.3925 50.9759 64.1851 51.2222 62.8384 51.2222C61.3989 51.2222 60.1218 50.937 59.0073 50.3667C57.8928 49.7963 56.9409 48.9667 56.1514 47.8778C55.037 48.9667 53.9457 49.7963 52.8776 50.3667C51.8096 50.937 50.7415 51.2222 49.6734 51.2222C49.3484 51.2222 49.0349 51.2222 48.7331 51.2222C48.4313 51.2222 48.2339 51.1963 48.141 51.1444V75.3333ZM90.0042 75.3333H48.141C48.2339 75.3333 48.4313 75.3333 48.7331 75.3333C49.0349 75.3333 49.3484 75.3333 49.6734 75.3333C50.4629 75.3333 51.4032 75.3333 52.4945 75.3333C53.5858 75.3333 54.8048 75.3333 56.1514 75.3333C56.5694 75.3333 57.0338 75.3333 57.5446 75.3333C58.0554 75.3333 58.601 75.3333 59.1815 75.3333C59.7619 75.3333 60.354 75.3333 60.9577 75.3333C61.5614 75.3333 62.1883 75.3333 62.8384 75.3333C63.3492 75.3333 63.8832 75.3333 64.4405 75.3333C64.9977 75.3333 65.555 75.3333 66.1122 75.3333C66.6695 75.3333 67.2035 75.3333 67.7143 75.3333C68.2251 75.3333 68.6895 75.3333 69.1074 75.3333C70.1291 75.3333 71.1507 75.3333 72.1723 75.3333C73.1939 75.3333 74.3316 75.3333 75.5854 75.3333C76.2355 75.3333 76.8741 75.3333 77.501 75.3333C78.1279 75.3333 78.7199 75.3333 79.2772 75.3333C79.8344 75.3333 80.3452 75.3333 80.8096 75.3333C81.274 75.3333 81.6919 75.3333 82.0634 75.3333C83.1315 75.3333 84.1995 75.3333 85.2676 75.3333C86.3356 75.3333 87.4037 75.3333 88.4718 75.3333C88.8433 75.3333 89.2032 75.3333 89.5514 75.3333C89.8997 75.3333 90.0506 75.3333 90.0042 75.3333Z" fill="#C4C4CC"/>
</svg>
