<svg width="138" height="152" viewBox="0 0 138 152" fill="none" xmlns="http://www.w3.org/2000/svg">
<path d="M0 24C0 10.7452 10.7452 0 24 0H114C127.255 0 138 10.7452 138 24V128C138 141.255 127.255 152 114 152H24C10.7452 152 0 141.255 0 128V24Z" fill="#0A3442"/>
<path d="M49.7216 56.4211C49.7216 59.5158 50.4216 62.4263 51.8216 65.1526C53.2216 67.8789 55.1742 70.1509 57.6795 71.9684C57.483 71.3789 57.3356 70.7772 57.2374 70.1632C57.1391 69.5491 57.09 68.9474 57.09 68.3579C57.09 66.786 57.3847 65.3123 57.9742 63.9368C58.5637 62.5614 59.4233 61.3088 60.5532 60.1789L68.8795 52L77.2058 60.1789C78.3356 61.3088 79.1953 62.5614 79.7847 63.9368C80.3742 65.3123 80.669 66.786 80.669 68.3579C80.669 68.9474 80.6198 69.5491 80.5216 70.1632C80.4233 70.7772 80.276 71.3789 80.0795 71.9684C82.5847 70.1509 84.5374 67.8789 85.9374 65.1526C87.3374 62.4263 88.0374 59.5158 88.0374 56.4211C88.0374 53.7684 87.4725 51.1772 86.3426 48.6474C85.2128 46.1175 83.5918 43.7965 81.4795 41.6842C80.4479 42.4211 79.3672 42.9982 78.2374 43.4158C77.1076 43.8333 75.9777 44.0421 74.8479 44.0421C71.8514 44.0421 69.3707 43.0228 67.4058 40.9842C65.4409 38.9456 64.4584 36.3789 64.4584 33.2842V31.8105C62.1988 33.4316 60.1602 35.2246 58.3426 37.1895C56.5251 39.1544 54.9777 41.2053 53.7005 43.3421C52.4233 45.4789 51.4409 47.6649 50.7532 49.9C50.0654 52.1351 49.7216 54.3088 49.7216 56.4211ZM68.8795 58.1895L63.6479 63.3474C62.9602 64.0351 62.4321 64.7965 62.0637 65.6316C61.6953 66.4667 61.5111 67.3754 61.5111 68.3579C61.5111 70.3719 62.2233 72.0789 63.6479 73.4789C65.0725 74.8789 66.8163 75.5789 68.8795 75.5789C70.9426 75.5789 72.6865 74.8789 74.1111 73.4789C75.5356 72.0789 76.2479 70.3719 76.2479 68.3579C76.2479 67.3754 76.0637 66.4667 75.6953 65.6316C75.3269 64.7965 74.7988 64.0351 74.1111 63.3474L68.8795 58.1895ZM68.8795 24V33.7263C68.8795 35.3965 69.4567 36.7965 70.6111 37.9263C71.7654 39.0561 73.1777 39.6211 74.8479 39.6211C75.7321 39.6211 76.5549 39.4368 77.3163 39.0684C78.0777 38.7 78.7532 38.1474 79.3426 37.4105L80.669 35.7895C84.304 37.8526 87.1777 40.7263 89.29 44.4105C91.4023 48.0947 92.4584 52.0982 92.4584 56.4211C92.4584 63.0035 90.1742 68.5789 85.6058 73.1474C81.0374 77.7158 75.4619 80 68.8795 80C62.297 80 56.7216 77.7158 52.1532 73.1474C47.5847 68.5789 45.3005 63.0035 45.3005 56.4211C45.3005 50.1333 47.4128 44.0789 51.6374 38.2579C55.8619 32.4368 61.6093 27.6842 68.8795 24Z" fill="white"/>
</svg>
